<?xml version="1.0" standalone="no"?>
<!DOCTYPE svg PUBLIC "-//W3C//DTD SVG 1.1//EN" "http://www.w3.org/Graphics/SVG/1.1/DTD/svg11.dtd">
<svg width="100%" height="100%" viewBox="0 0 4000 4000" version="1.1" xmlns="http://www.w3.org/2000/svg" xmlns:xlink="http://www.w3.org/1999/xlink" xml:space="preserve" style="fill-rule:evenodd;clip-rule:evenodd;stroke-linejoin:round;stroke-miterlimit:1.41421;">
    <g id="Lines" transform="matrix(2.11479,1.35087e-18,1.35087e-18,2.10928,12164.4,10349.8)">
        <g id="Vertical Lines" transform="matrix(-3.56622,4.03331e-16,3.66389e-15,6.33182,7915.23,-4897.83)">
            <g transform="matrix(0.256568,0,0,1,3322.23,-1.4142)">
                <rect x="44.76" y="0" width="5.746" height="2160" style="fill:rgb(179,179,179);"/>
            </g>
            <g transform="matrix(0.256568,0,0,1,3522.1,-1.4142)">
                <rect x="44.76" y="0" width="5.746" height="2160" style="fill:rgb(179,179,179);"/>
            </g>
            <g transform="matrix(0.256568,0,0,1,3422.04,-1.4142)">
                <rect x="44.76" y="0" width="5.746" height="2160" style="fill:rgb(179,179,179);"/>
            </g>
            <g transform="matrix(0.256568,0,0,1,3621.91,-1.4142)">
                <rect x="44.76" y="0" width="5.746" height="2160" style="fill:rgb(179,179,179);"/>
            </g>
            <g transform="matrix(0.256568,0,0,1,3721.24,-1.4142)">
                <rect x="44.76" y="0" width="5.746" height="2160" style="fill:rgb(179,179,179);"/>
            </g>
            <g transform="matrix(0.256568,0,0,1,3372.16,-1.4142)">
                <rect x="44.76" y="0" width="5.746" height="2160" style="fill:rgb(179,179,179);"/>
            </g>
            <g transform="matrix(0.256568,0,0,1,3572.03,-1.4142)">
                <rect x="44.76" y="0" width="5.746" height="2160" style="fill:rgb(179,179,179);"/>
            </g>
            <g transform="matrix(0.256568,0,0,1,3471.97,-1.4142)">
                <rect x="44.76" y="0" width="5.746" height="2160" style="fill:rgb(179,179,179);"/>
            </g>
            <g transform="matrix(0.256568,0,0,1,3671.84,-1.4142)">
                <rect x="44.76" y="0" width="5.746" height="2160" style="fill:rgb(179,179,179);"/>
            </g>
            <g transform="matrix(0.256568,0,0,1,3771.17,-1.4142)">
                <rect x="44.76" y="0" width="5.746" height="2160" style="fill:rgb(179,179,179);"/>
            </g>
            <g transform="matrix(0.256568,0,0,1,3355.22,-1.4142)">
                <rect x="44.76" y="0" width="5.746" height="2160" style="fill:rgb(179,179,179);"/>
            </g>
            <g transform="matrix(0.256568,0,0,1,3555.08,-1.4142)">
                <rect x="44.76" y="0" width="5.746" height="2160" style="fill:rgb(179,179,179);"/>
            </g>
            <g transform="matrix(0.256568,0,0,1,3455.03,-1.4142)">
                <rect x="44.76" y="0" width="5.746" height="2160" style="fill:rgb(179,179,179);"/>
            </g>
            <g transform="matrix(0.256568,0,0,1,3654.89,-1.4142)">
                <rect x="44.76" y="0" width="5.746" height="2160" style="fill:rgb(179,179,179);"/>
            </g>
            <g transform="matrix(0.256568,0,0,1,3754.22,-1.4142)">
                <rect x="44.76" y="0" width="5.746" height="2160" style="fill:rgb(179,179,179);"/>
            </g>
            <g transform="matrix(0.256568,0,0,1,3405.14,-1.4142)">
                <rect x="44.76" y="0" width="5.746" height="2160" style="fill:rgb(179,179,179);"/>
            </g>
            <g transform="matrix(0.256568,0,0,1,3605.01,-1.4142)">
                <rect x="44.76" y="0" width="5.746" height="2160" style="fill:rgb(179,179,179);"/>
            </g>
            <g transform="matrix(0.256568,0,0,1,3504.95,-1.4142)">
                <rect x="44.76" y="0" width="5.746" height="2160" style="fill:rgb(179,179,179);"/>
            </g>
            <g transform="matrix(0.256568,0,0,1,3305.24,-1.4142)">
                <rect x="44.76" y="0" width="5.746" height="2160" style="fill:rgb(179,179,179);"/>
            </g>
            <g transform="matrix(0.256568,0,0,1,3704.82,-1.4142)">
                <rect x="44.76" y="0" width="5.746" height="2160" style="fill:rgb(179,179,179);"/>
            </g>
            <g transform="matrix(0.256568,0,0,1,3804.15,-1.4142)">
                <rect x="44.76" y="0" width="5.746" height="2160" style="fill:rgb(179,179,179);"/>
            </g>
            <g transform="matrix(0.256568,0,0,1,3819.48,-1.4142)">
                <rect x="44.76" y="0" width="5.746" height="2160" style="fill:rgb(179,179,179);"/>
            </g>
            <g transform="matrix(0.256568,0,0,1,3339.07,-1.4142)">
                <rect x="44.76" y="0" width="5.746" height="2160" style="fill:rgb(179,179,179);"/>
            </g>
            <g transform="matrix(0.256568,0,0,1,3538.93,-1.4142)">
                <rect x="44.76" y="0" width="5.746" height="2160" style="fill:rgb(179,179,179);"/>
            </g>
            <g transform="matrix(0.256568,0,0,1,3438.88,-1.4142)">
                <rect x="44.76" y="0" width="5.746" height="2160" style="fill:rgb(179,179,179);"/>
            </g>
            <g transform="matrix(0.256568,0,0,1,3638.74,-1.4142)">
                <rect x="44.76" y="0" width="5.746" height="2160" style="fill:rgb(179,179,179);"/>
            </g>
            <g transform="matrix(0.256568,0,0,1,3738.07,-1.4142)">
                <rect x="44.76" y="0" width="5.746" height="2160" style="fill:rgb(179,179,179);"/>
            </g>
            <g transform="matrix(0.256568,0,0,1,3388.99,-1.4142)">
                <rect x="44.76" y="0" width="5.746" height="2160" style="fill:rgb(179,179,179);"/>
            </g>
            <g transform="matrix(0.256568,0,0,1,3588.86,-1.4142)">
                <rect x="44.76" y="0" width="5.746" height="2160" style="fill:rgb(179,179,179);"/>
            </g>
            <g transform="matrix(0.256568,0,0,1,3488.8,-1.4142)">
                <rect x="44.76" y="0" width="5.746" height="2160" style="fill:rgb(179,179,179);"/>
            </g>
            <g transform="matrix(0.256568,0,0,1,3688.67,-1.4142)">
                <rect x="44.76" y="0" width="5.746" height="2160" style="fill:rgb(179,179,179);"/>
            </g>
            <g transform="matrix(0.256568,0,0,1,3788,-1.4142)">
                <rect x="44.76" y="0" width="5.746" height="2160" style="fill:rgb(179,179,179);"/>
            </g>
        </g>
        <g id="Horizontal Lines" transform="matrix(1.18178e-16,-3.57554,-6.31531,5.47182e-15,7880.07,8796.22)">
            <g transform="matrix(0.256568,0,0,1,3322.23,-1.4142)">
                <rect x="44.76" y="0" width="5.746" height="2160" style="fill:rgb(179,179,179);"/>
            </g>
            <g transform="matrix(0.256568,0,0,1,3522.1,-1.4142)">
                <rect x="44.76" y="0" width="5.746" height="2160" style="fill:rgb(179,179,179);"/>
            </g>
            <g transform="matrix(0.256568,0,0,1,3422.04,-1.4142)">
                <rect x="44.76" y="0" width="5.746" height="2160" style="fill:rgb(179,179,179);"/>
            </g>
            <g transform="matrix(0.256568,0,0,1,3621.91,-1.4142)">
                <rect x="44.76" y="0" width="5.746" height="2160" style="fill:rgb(179,179,179);"/>
            </g>
            <g transform="matrix(0.256568,0,0,1,3721.24,-1.4142)">
                <rect x="44.76" y="0" width="5.746" height="2160" style="fill:rgb(179,179,179);"/>
            </g>
            <g transform="matrix(0.256568,0,0,1,3372.16,-1.4142)">
                <rect x="44.76" y="0" width="5.746" height="2160" style="fill:rgb(179,179,179);"/>
            </g>
            <g transform="matrix(0.256568,0,0,1,3572.03,-1.4142)">
                <rect x="44.76" y="0" width="5.746" height="2160" style="fill:rgb(179,179,179);"/>
            </g>
            <g transform="matrix(0.256568,0,0,1,3471.97,-1.4142)">
                <rect x="44.76" y="0" width="5.746" height="2160" style="fill:rgb(179,179,179);"/>
            </g>
            <g transform="matrix(0.256568,0,0,1,3671.84,-1.4142)">
                <rect x="44.76" y="0" width="5.746" height="2160" style="fill:rgb(179,179,179);"/>
            </g>
            <g transform="matrix(0.256568,0,0,1,3771.17,-1.4142)">
                <rect x="44.76" y="0" width="5.746" height="2160" style="fill:rgb(179,179,179);"/>
            </g>
            <g transform="matrix(0.256568,0,0,1,3355.22,-1.4142)">
                <rect x="44.76" y="0" width="5.746" height="2160" style="fill:rgb(179,179,179);"/>
            </g>
            <g transform="matrix(0.256568,0,0,1,3555.08,-1.4142)">
                <rect x="44.76" y="0" width="5.746" height="2160" style="fill:rgb(179,179,179);"/>
            </g>
            <g transform="matrix(0.256568,0,0,1,3455.03,-1.4142)">
                <rect x="44.76" y="0" width="5.746" height="2160" style="fill:rgb(179,179,179);"/>
            </g>
            <g transform="matrix(0.256568,0,0,1,3654.89,-1.4142)">
                <rect x="44.76" y="0" width="5.746" height="2160" style="fill:rgb(179,179,179);"/>
            </g>
            <g transform="matrix(0.256568,0,0,1,3754.22,-1.4142)">
                <rect x="44.76" y="0" width="5.746" height="2160" style="fill:rgb(179,179,179);"/>
            </g>
            <g transform="matrix(0.256568,0,0,1,3405.14,-1.4142)">
                <rect x="44.76" y="0" width="5.746" height="2160" style="fill:rgb(179,179,179);"/>
            </g>
            <g transform="matrix(0.256568,0,0,1,3605.01,-1.4142)">
                <rect x="44.76" y="0" width="5.746" height="2160" style="fill:rgb(179,179,179);"/>
            </g>
            <g transform="matrix(0.256568,0,0,1,3504.95,-1.4142)">
                <rect x="44.76" y="0" width="5.746" height="2160" style="fill:rgb(179,179,179);"/>
            </g>
            <g transform="matrix(0.256568,0,0,1,3305.24,-1.4142)">
                <rect x="44.76" y="0" width="5.746" height="2160" style="fill:rgb(179,179,179);"/>
            </g>
            <g transform="matrix(0.256568,0,0,1,3704.82,-1.4142)">
                <rect x="44.76" y="0" width="5.746" height="2160" style="fill:rgb(179,179,179);"/>
            </g>
            <g transform="matrix(0.256568,0,0,1,3804.15,-1.4142)">
                <rect x="44.76" y="0" width="5.746" height="2160" style="fill:rgb(179,179,179);"/>
            </g>
            <g transform="matrix(0.256568,0,0,1,3819.48,-1.4142)">
                <rect x="44.76" y="0" width="5.746" height="2160" style="fill:rgb(179,179,179);"/>
            </g>
            <g transform="matrix(0.256568,0,0,1,3339.07,-1.4142)">
                <rect x="44.76" y="0" width="5.746" height="2160" style="fill:rgb(179,179,179);"/>
            </g>
            <g transform="matrix(0.256568,0,0,1,3538.93,-1.4142)">
                <rect x="44.76" y="0" width="5.746" height="2160" style="fill:rgb(179,179,179);"/>
            </g>
            <g transform="matrix(0.256568,0,0,1,3438.88,-1.4142)">
                <rect x="44.76" y="0" width="5.746" height="2160" style="fill:rgb(179,179,179);"/>
            </g>
            <g transform="matrix(0.256568,0,0,1,3638.74,-1.4142)">
                <rect x="44.76" y="0" width="5.746" height="2160" style="fill:rgb(179,179,179);"/>
            </g>
            <g transform="matrix(0.256568,0,0,1,3738.07,-1.4142)">
                <rect x="44.76" y="0" width="5.746" height="2160" style="fill:rgb(179,179,179);"/>
            </g>
            <g transform="matrix(0.256568,0,0,1,3388.99,-1.4142)">
                <rect x="44.76" y="0" width="5.746" height="2160" style="fill:rgb(179,179,179);"/>
            </g>
            <g transform="matrix(0.256568,0,0,1,3588.86,-1.4142)">
                <rect x="44.76" y="0" width="5.746" height="2160" style="fill:rgb(179,179,179);"/>
            </g>
            <g transform="matrix(0.256568,0,0,1,3488.8,-1.4142)">
                <rect x="44.76" y="0" width="5.746" height="2160" style="fill:rgb(179,179,179);"/>
            </g>
            <g transform="matrix(0.256568,0,0,1,3688.67,-1.4142)">
                <rect x="44.76" y="0" width="5.746" height="2160" style="fill:rgb(179,179,179);"/>
            </g>
            <g transform="matrix(0.256568,0,0,1,3788,-1.4142)">
                <rect x="44.76" y="0" width="5.746" height="2160" style="fill:rgb(179,179,179);"/>
            </g>
        </g>
    </g>
</svg>
