<?xml version="1.0" standalone="no"?>
<!DOCTYPE svg PUBLIC "-//W3C//DTD SVG 1.1//EN" "http://www.w3.org/Graphics/SVG/1.1/DTD/svg11.dtd">
<svg width="100%" height="100%" viewBox="0 0 2000 2000" version="1.1" xmlns="http://www.w3.org/2000/svg" xmlns:xlink="http://www.w3.org/1999/xlink" xml:space="preserve" style="fill-rule:evenodd;clip-rule:evenodd;stroke-linecap:round;stroke-linejoin:round;stroke-miterlimit:1.41421;">
    <g transform="matrix(0.856671,0,0,0.856671,254.22,173.261)">
        <path d="M1468.9,460.548C1468.9,437.397 1456.64,418.351 1433.49,418.351L1154.33,399.879L1074.57,465.432L1003.71,604.76L953.825,709.942L774.372,1004.65L750.403,1138.04L733.514,941.044L747.304,903.839L835.15,651.976L798.608,425.006L783.46,393.282L380.469,392.003C357.318,392.003 337.123,414.705 337.123,437.856L367.003,876.891L367.003,2048.99C367.003,2072.14 385.799,2090.94 408.95,2090.94L1332.16,2090.94C1355.31,2090.94 1374.11,2072.14 1374.11,2048.99L1391.05,808.094L1468.9,460.548Z" style="fill:rgb(61,61,61);"/>
    </g>
    <g transform="matrix(0.596072,0,0,0.592431,470.365,411.165)">
        <path d="M1468.9,460.548C1468.9,437.397 1456.64,418.351 1433.49,418.351L1126.99,392.003L1097.64,447.673L1012.58,623.353L921.676,747.951L754.04,1052.22L716.981,1229.05L692.072,957.867L835.15,536.698L811.482,392.003L741.073,392.98L380.469,392.003C357.318,392.003 337.123,414.705 337.123,437.856L367.003,876.891L367.003,2048.99C367.003,2072.14 385.799,2090.94 408.95,2090.94L1332.16,2090.94C1355.31,2090.94 1374.11,2072.14 1374.11,2048.99L1383.2,1382.82L1391.05,808.094L1468.9,460.548Z" style="fill:rgb(243,243,243);stroke-width:13.46px;stroke:rgb(243,243,243);"/>
    </g>
    <g>
        <g transform="matrix(0.72818,-1.05619,1.04795,0.722499,-1139.44,1370.02)">
            <rect x="728.692" y="1461.59" width="46.239" height="70.922" style="fill:url(#_Radial1);"/>
        </g>
        <g transform="matrix(1.26564,-0.209664,0.208028,1.25576,-386.877,-40.9054)">
            <rect x="728.692" y="1461.59" width="46.239" height="70.922" style="fill:url(#_Radial2);"/>
        </g>
        <g transform="matrix(1.27342,-0.155525,0.154311,1.26349,11.079,-130.89)">
            <rect x="728.692" y="1461.59" width="46.239" height="70.922" style="fill:url(#_Radial3);"/>
        </g>
        <g transform="matrix(0.942241,0.870618,-0.863826,0.934889,1339.44,-389.213)">
            <rect x="728.692" y="1461.59" width="46.239" height="70.922" style="fill:url(#_Radial4);"/>
        </g>
        <g transform="matrix(1.0871,0.681182,-0.675868,1.07862,1269.66,-459.568)">
            <rect x="728.692" y="1461.59" width="46.239" height="70.922" style="fill:url(#_Radial5);"/>
        </g>
    </g>
    <g transform="matrix(1.28277,0.338076,-0.338076,1.28277,-178.792,-393.088)">
        <g transform="matrix(1,0,0,1,-614.094,-27.8177)">
            <path d="M1687.97,129.463C1784.76,129.463 1863.34,208.048 1863.34,304.842C1863.34,334.832 1855.8,363.073 1842.51,387.771C1829.36,412.21 1810.58,442.751 1787.91,469.151C1775.42,483.687 1761.76,500.569 1747.21,514.917C1728.7,533.172 1708.75,558.212 1687.97,558.212C1667.89,558.212 1648.24,533.173 1630.27,515.717C1615.45,501.329 1601.89,484.936 1589.17,470.268C1566.27,443.844 1547.26,413.133 1533.9,388.664C1520.31,363.755 1512.59,335.194 1512.59,304.842C1512.59,208.048 1591.17,129.463 1687.97,129.463Z" style="fill:rgb(33,212,102);"/>
        </g>
        <g transform="matrix(1.72599,0,0,1.72599,-785.748,-218.77)">
            <circle cx="1077.42" cy="283.841" r="49.619" style="fill:rgb(68,68,68);"/>
        </g>
    </g>
    <g transform="matrix(1,0,0,1,3.33136,-7.67325)">
        <rect x="711.152" y="1551" width="557.91" height="11.541" style="fill:rgb(61,61,61);"/>
    </g>
    <g transform="matrix(1.00676,0,0,6.96423,-13.7444,-9147.63)">
        <rect x="711.152" y="1551" width="557.91" height="11.541" style="fill:rgb(61,61,61);"/>
    </g>
    <g transform="matrix(1,0,0,1,3.33136,-135.745)">
        <rect x="711.152" y="1551" width="557.91" height="11.541" style="fill:rgb(61,61,61);"/>
    </g>
    <g transform="matrix(1,0,0,1,2.66356,-260.822)">
        <rect x="711.152" y="1551" width="557.91" height="11.541" style="fill:rgb(61,61,61);"/>
    </g>
    <g transform="matrix(1,0,0,1,3.33136,-392.776)">
        <rect x="711.152" y="1551" width="557.91" height="11.541" style="fill:rgb(61,61,61);"/>
    </g>
    <g transform="matrix(0.562552,-0.218493,0.362047,0.93216,-16.5656,-213.749)">
        <rect x="711.152" y="1551" width="557.91" height="11.541" style="fill:rgb(61,61,61);"/>
    </g>
    <g transform="matrix(0.283807,0.0406075,-0.141639,0.989918,733.958,-560.203)">
        <rect x="711.152" y="1551" width="557.91" height="11.541" style="fill:rgb(61,61,61);"/>
    </g>
    <g transform="matrix(0.265233,0.217111,-0.633416,0.773812,1539.5,-558.432)">
        <rect x="711.152" y="1551" width="557.91" height="11.541" style="fill:rgb(61,61,61);"/>
    </g>
    <g transform="matrix(0.454076,-0.0612766,0.133736,0.991017,486.507,-619.959)">
        <rect x="711.152" y="1551" width="557.91" height="11.541" style="fill:rgb(61,61,61);"/>
    </g>
    <g>
        <g transform="matrix(1.28288,0,0,1.27288,-210.507,-412.913)">
            <rect x="728.692" y="1461.59" width="46.239" height="70.922" style="fill:url(#_Radial6);"/>
        </g>
        <g transform="matrix(1.28288,0,0,1.27288,-130.148,-412.913)">
            <rect x="728.692" y="1461.59" width="46.239" height="70.922" style="fill:url(#_Radial7);"/>
        </g>
        <g transform="matrix(1.28288,0,0,1.27288,-48.9401,-412.913)">
            <rect x="728.692" y="1461.59" width="46.239" height="70.922" style="fill:url(#_Radial8);"/>
        </g>
        <g transform="matrix(1.28288,0,0,1.27288,32.6938,-412.913)">
            <rect x="728.692" y="1461.59" width="46.239" height="70.922" style="fill:url(#_Radial9);"/>
        </g>
        <g transform="matrix(1.28288,0,0,1.27288,114.655,-412.913)">
            <rect x="728.692" y="1461.59" width="46.239" height="70.922" style="fill:url(#_Radial10);"/>
        </g>
        <g transform="matrix(1.28288,0,0,1.27288,197.425,-412.913)">
            <rect x="728.692" y="1461.59" width="46.239" height="70.922" style="fill:url(#_Radial11);"/>
        </g>
        <g transform="matrix(1.28288,0,0,1.27288,275.895,-412.913)">
            <rect x="728.692" y="1461.59" width="46.239" height="70.922" style="fill:url(#_Radial12);"/>
        </g>
    </g>
    <g transform="matrix(1,0,0,1,-0.000146557,-127.672)">
        <g transform="matrix(1.28288,0,0,1.27288,-210.507,-412.913)">
            <rect x="728.692" y="1461.59" width="46.239" height="70.922" style="fill:url(#_Radial13);"/>
        </g>
        <g transform="matrix(1.28288,0,0,1.27288,-130.148,-412.913)">
            <rect x="728.692" y="1461.59" width="46.239" height="70.922" style="fill:url(#_Radial14);"/>
        </g>
        <g transform="matrix(1.28288,0,0,1.27288,-48.9401,-412.913)">
            <rect x="728.692" y="1461.59" width="46.239" height="70.922" style="fill:url(#_Radial15);"/>
        </g>
        <g transform="matrix(1.28288,0,0,1.27288,32.6938,-412.913)">
            <rect x="728.692" y="1461.59" width="46.239" height="70.922" style="fill:url(#_Radial16);"/>
        </g>
        <g transform="matrix(1.28288,0,0,1.27288,114.655,-412.913)">
            <rect x="728.692" y="1461.59" width="46.239" height="70.922" style="fill:url(#_Radial17);"/>
        </g>
        <g transform="matrix(1.28288,0,0,1.27288,197.425,-412.913)">
            <rect x="728.692" y="1461.59" width="46.239" height="70.922" style="fill:url(#_Radial18);"/>
        </g>
        <g transform="matrix(1.28288,0,0,1.27288,275.895,-412.913)">
            <rect x="728.692" y="1461.59" width="46.239" height="70.922" style="fill:url(#_Radial19);"/>
        </g>
    </g>
    <g transform="matrix(1,0,0,1,0,-253.48)">
        <g transform="matrix(1.28288,0,0,1.27288,-210.507,-412.913)">
            <rect x="728.692" y="1461.59" width="46.239" height="70.922" style="fill:url(#_Radial20);"/>
        </g>
        <g transform="matrix(1.28288,0,0,1.27288,-130.148,-412.913)">
            <rect x="728.692" y="1461.59" width="46.239" height="70.922" style="fill:url(#_Radial21);"/>
        </g>
        <g transform="matrix(1.28288,0,0,1.27288,-48.9401,-412.913)">
            <rect x="728.692" y="1461.59" width="46.239" height="70.922" style="fill:url(#_Radial22);"/>
        </g>
        <g transform="matrix(1.28288,0,0,1.27288,32.6938,-412.913)">
            <rect x="728.692" y="1461.59" width="46.239" height="70.922" style="fill:url(#_Radial23);"/>
        </g>
        <g transform="matrix(1.28288,0,0,1.27288,114.655,-412.913)">
            <rect x="728.692" y="1461.59" width="46.239" height="70.922" style="fill:url(#_Radial24);"/>
        </g>
        <g transform="matrix(1.28288,0,0,1.27288,197.425,-412.913)">
            <rect x="728.692" y="1461.59" width="46.239" height="70.922" style="fill:url(#_Radial25);"/>
        </g>
        <g transform="matrix(1.28288,0,0,1.27288,275.895,-412.913)">
            <rect x="728.692" y="1461.59" width="46.239" height="70.922" style="fill:url(#_Radial26);"/>
        </g>
    </g>
    <g transform="matrix(1,0,0,1,-0.900807,-383.841)">
        <g transform="matrix(1.28288,0,0,1.27288,-210.507,-412.913)">
            <rect x="728.692" y="1461.59" width="46.239" height="70.922" style="fill:url(#_Radial27);"/>
        </g>
        <g transform="matrix(-0.186307,1.26928,-1.25938,-0.184854,2851.71,691.329)">
            <rect x="728.692" y="1461.59" width="46.239" height="70.922" style="fill:url(#_Radial28);"/>
        </g>
        <g transform="matrix(1.28288,0,0,1.27288,-130.148,-412.913)">
            <rect x="728.692" y="1461.59" width="46.239" height="70.922" style="fill:url(#_Radial29);"/>
        </g>
        <g transform="matrix(1.28288,0,0,1.27288,114.655,-412.913)">
            <rect x="728.692" y="1461.59" width="46.239" height="70.922" style="fill:url(#_Radial30);"/>
        </g>
        <g transform="matrix(1.28288,0,0,1.27288,197.425,-412.913)">
            <rect x="728.692" y="1461.59" width="46.239" height="70.922" style="fill:url(#_Radial31);"/>
        </g>
        <g transform="matrix(-0.174775,-1.27092,1.26101,-0.173412,-647.594,2425.34)">
            <rect x="728.692" y="1461.59" width="46.239" height="70.922" style="fill:url(#_Radial32);"/>
        </g>
        <g transform="matrix(1.28288,0,0,1.27288,275.895,-412.913)">
            <rect x="728.692" y="1461.59" width="46.239" height="70.922" style="fill:url(#_Radial33);"/>
        </g>
        <g transform="matrix(-0.456938,-1.19875,1.1894,-0.453373,-408.352,2972.09)">
            <rect x="728.692" y="1461.59" width="46.239" height="70.922" style="fill:url(#_Radial34);"/>
        </g>
    </g>
    <defs>
        <radialGradient id="_Radial1" cx="0" cy="0" r="1" gradientUnits="userSpaceOnUse" gradientTransform="matrix(46.2387,0,0,70.9225,728.692,1497.05)"><stop offset="0%" style="stop-color:rgb(131,122,255);stop-opacity:1"/><stop offset="100%" style="stop-color:rgb(100,61,255);stop-opacity:1"/></radialGradient>
        <radialGradient id="_Radial2" cx="0" cy="0" r="1" gradientUnits="userSpaceOnUse" gradientTransform="matrix(46.2387,0,0,70.9225,728.692,1497.05)"><stop offset="0%" style="stop-color:rgb(201,255,39);stop-opacity:1"/><stop offset="100%" style="stop-color:rgb(189,231,0);stop-opacity:1"/></radialGradient>
        <radialGradient id="_Radial3" cx="0" cy="0" r="1" gradientUnits="userSpaceOnUse" gradientTransform="matrix(46.2387,0,0,70.9225,728.692,1497.05)"><stop offset="0%" style="stop-color:rgb(0,249,46);stop-opacity:1"/><stop offset="100%" style="stop-color:rgb(0,190,13);stop-opacity:1"/></radialGradient>
        <radialGradient id="_Radial4" cx="0" cy="0" r="1" gradientUnits="userSpaceOnUse" gradientTransform="matrix(46.2387,0,0,70.9225,728.692,1497.05)"><stop offset="0%" style="stop-color:rgb(255,128,114);stop-opacity:1"/><stop offset="100%" style="stop-color:rgb(255,86,8);stop-opacity:1"/></radialGradient>
        <radialGradient id="_Radial5" cx="0" cy="0" r="1" gradientUnits="userSpaceOnUse" gradientTransform="matrix(46.2387,0,0,70.9225,728.692,1497.05)"><stop offset="0%" style="stop-color:rgb(231,207,0);stop-opacity:1"/><stop offset="100%" style="stop-color:rgb(255,154,22);stop-opacity:1"/></radialGradient>
        <radialGradient id="_Radial6" cx="0" cy="0" r="1" gradientUnits="userSpaceOnUse" gradientTransform="matrix(46.2387,0,0,70.9225,728.692,1497.05)"><stop offset="0%" style="stop-color:rgb(131,122,255);stop-opacity:1"/><stop offset="100%" style="stop-color:rgb(100,61,255);stop-opacity:1"/></radialGradient>
        <radialGradient id="_Radial7" cx="0" cy="0" r="1" gradientUnits="userSpaceOnUse" gradientTransform="matrix(46.2387,0,0,70.9225,728.692,1497.05)"><stop offset="0%" style="stop-color:rgb(201,255,39);stop-opacity:1"/><stop offset="100%" style="stop-color:rgb(189,231,0);stop-opacity:1"/></radialGradient>
        <radialGradient id="_Radial8" cx="0" cy="0" r="1" gradientUnits="userSpaceOnUse" gradientTransform="matrix(46.2387,0,0,70.9225,728.692,1497.05)"><stop offset="0%" style="stop-color:rgb(0,249,46);stop-opacity:1"/><stop offset="100%" style="stop-color:rgb(0,190,13);stop-opacity:1"/></radialGradient>
        <radialGradient id="_Radial9" cx="0" cy="0" r="1" gradientUnits="userSpaceOnUse" gradientTransform="matrix(46.2387,0,0,70.9225,728.692,1497.05)"><stop offset="0%" style="stop-color:rgb(255,128,114);stop-opacity:1"/><stop offset="100%" style="stop-color:rgb(255,86,8);stop-opacity:1"/></radialGradient>
        <radialGradient id="_Radial10" cx="0" cy="0" r="1" gradientUnits="userSpaceOnUse" gradientTransform="matrix(46.2387,0,0,70.9225,728.692,1497.05)"><stop offset="0%" style="stop-color:rgb(231,207,0);stop-opacity:1"/><stop offset="100%" style="stop-color:rgb(255,154,22);stop-opacity:1"/></radialGradient>
        <radialGradient id="_Radial11" cx="0" cy="0" r="1" gradientUnits="userSpaceOnUse" gradientTransform="matrix(46.2387,0,0,70.9225,728.692,1497.05)"><stop offset="0%" style="stop-color:rgb(240,122,255);stop-opacity:1"/><stop offset="100%" style="stop-color:rgb(208,0,211);stop-opacity:1"/></radialGradient>
        <radialGradient id="_Radial12" cx="0" cy="0" r="1" gradientUnits="userSpaceOnUse" gradientTransform="matrix(46.2387,0,0,70.9225,728.692,1497.05)"><stop offset="0%" style="stop-color:rgb(255,138,79);stop-opacity:1"/><stop offset="100%" style="stop-color:rgb(255,74,19);stop-opacity:1"/></radialGradient>
        <radialGradient id="_Radial13" cx="0" cy="0" r="1" gradientUnits="userSpaceOnUse" gradientTransform="matrix(46.2387,0,0,70.9225,728.692,1497.05)"><stop offset="0%" style="stop-color:rgb(131,122,255);stop-opacity:1"/><stop offset="100%" style="stop-color:rgb(100,61,255);stop-opacity:1"/></radialGradient>
        <radialGradient id="_Radial14" cx="0" cy="0" r="1" gradientUnits="userSpaceOnUse" gradientTransform="matrix(46.2387,0,0,70.9225,728.692,1497.05)"><stop offset="0%" style="stop-color:rgb(201,255,39);stop-opacity:1"/><stop offset="100%" style="stop-color:rgb(189,231,0);stop-opacity:1"/></radialGradient>
        <radialGradient id="_Radial15" cx="0" cy="0" r="1" gradientUnits="userSpaceOnUse" gradientTransform="matrix(46.2387,0,0,70.9225,728.692,1497.05)"><stop offset="0%" style="stop-color:rgb(0,249,46);stop-opacity:1"/><stop offset="100%" style="stop-color:rgb(0,190,13);stop-opacity:1"/></radialGradient>
        <radialGradient id="_Radial16" cx="0" cy="0" r="1" gradientUnits="userSpaceOnUse" gradientTransform="matrix(46.2387,0,0,70.9225,728.692,1497.05)"><stop offset="0%" style="stop-color:rgb(255,128,114);stop-opacity:1"/><stop offset="100%" style="stop-color:rgb(255,86,8);stop-opacity:1"/></radialGradient>
        <radialGradient id="_Radial17" cx="0" cy="0" r="1" gradientUnits="userSpaceOnUse" gradientTransform="matrix(46.2387,0,0,70.9225,728.692,1497.05)"><stop offset="0%" style="stop-color:rgb(231,207,0);stop-opacity:1"/><stop offset="100%" style="stop-color:rgb(255,154,22);stop-opacity:1"/></radialGradient>
        <radialGradient id="_Radial18" cx="0" cy="0" r="1" gradientUnits="userSpaceOnUse" gradientTransform="matrix(46.2387,0,0,70.9225,728.692,1497.05)"><stop offset="0%" style="stop-color:rgb(240,122,255);stop-opacity:1"/><stop offset="100%" style="stop-color:rgb(208,0,211);stop-opacity:1"/></radialGradient>
        <radialGradient id="_Radial19" cx="0" cy="0" r="1" gradientUnits="userSpaceOnUse" gradientTransform="matrix(46.2387,0,0,70.9225,728.692,1497.05)"><stop offset="0%" style="stop-color:rgb(255,138,79);stop-opacity:1"/><stop offset="100%" style="stop-color:rgb(255,74,19);stop-opacity:1"/></radialGradient>
        <radialGradient id="_Radial20" cx="0" cy="0" r="1" gradientUnits="userSpaceOnUse" gradientTransform="matrix(46.2387,0,0,70.9225,728.692,1497.05)"><stop offset="0%" style="stop-color:rgb(131,122,255);stop-opacity:1"/><stop offset="100%" style="stop-color:rgb(100,61,255);stop-opacity:1"/></radialGradient>
        <radialGradient id="_Radial21" cx="0" cy="0" r="1" gradientUnits="userSpaceOnUse" gradientTransform="matrix(46.2387,0,0,70.9225,728.692,1497.05)"><stop offset="0%" style="stop-color:rgb(201,255,39);stop-opacity:1"/><stop offset="100%" style="stop-color:rgb(189,231,0);stop-opacity:1"/></radialGradient>
        <radialGradient id="_Radial22" cx="0" cy="0" r="1" gradientUnits="userSpaceOnUse" gradientTransform="matrix(46.2387,0,0,70.9225,728.692,1497.05)"><stop offset="0%" style="stop-color:rgb(0,249,46);stop-opacity:1"/><stop offset="100%" style="stop-color:rgb(0,190,13);stop-opacity:1"/></radialGradient>
        <radialGradient id="_Radial23" cx="0" cy="0" r="1" gradientUnits="userSpaceOnUse" gradientTransform="matrix(46.2387,0,0,70.9225,728.692,1497.05)"><stop offset="0%" style="stop-color:rgb(255,128,114);stop-opacity:1"/><stop offset="100%" style="stop-color:rgb(255,86,8);stop-opacity:1"/></radialGradient>
        <radialGradient id="_Radial24" cx="0" cy="0" r="1" gradientUnits="userSpaceOnUse" gradientTransform="matrix(46.2387,0,0,70.9225,728.692,1497.05)"><stop offset="0%" style="stop-color:rgb(231,207,0);stop-opacity:1"/><stop offset="100%" style="stop-color:rgb(255,154,22);stop-opacity:1"/></radialGradient>
        <radialGradient id="_Radial25" cx="0" cy="0" r="1" gradientUnits="userSpaceOnUse" gradientTransform="matrix(46.2387,0,0,70.9225,728.692,1497.05)"><stop offset="0%" style="stop-color:rgb(240,122,255);stop-opacity:1"/><stop offset="100%" style="stop-color:rgb(208,0,211);stop-opacity:1"/></radialGradient>
        <radialGradient id="_Radial26" cx="0" cy="0" r="1" gradientUnits="userSpaceOnUse" gradientTransform="matrix(46.2387,0,0,70.9225,728.692,1497.05)"><stop offset="0%" style="stop-color:rgb(255,138,79);stop-opacity:1"/><stop offset="100%" style="stop-color:rgb(255,74,19);stop-opacity:1"/></radialGradient>
        <radialGradient id="_Radial27" cx="0" cy="0" r="1" gradientUnits="userSpaceOnUse" gradientTransform="matrix(46.2387,0,0,70.9225,728.692,1497.05)"><stop offset="0%" style="stop-color:rgb(131,122,255);stop-opacity:1"/><stop offset="100%" style="stop-color:rgb(100,61,255);stop-opacity:1"/></radialGradient>
        <radialGradient id="_Radial28" cx="0" cy="0" r="1" gradientUnits="userSpaceOnUse" gradientTransform="matrix(46.2387,0,0,70.9225,728.692,1497.05)"><stop offset="0%" style="stop-color:rgb(131,122,255);stop-opacity:1"/><stop offset="100%" style="stop-color:rgb(100,61,255);stop-opacity:1"/></radialGradient>
        <radialGradient id="_Radial29" cx="0" cy="0" r="1" gradientUnits="userSpaceOnUse" gradientTransform="matrix(46.2387,0,0,70.9225,728.692,1497.05)"><stop offset="0%" style="stop-color:rgb(201,255,39);stop-opacity:1"/><stop offset="100%" style="stop-color:rgb(189,231,0);stop-opacity:1"/></radialGradient>
        <radialGradient id="_Radial30" cx="0" cy="0" r="1" gradientUnits="userSpaceOnUse" gradientTransform="matrix(46.2387,0,0,70.9225,728.692,1497.05)"><stop offset="0%" style="stop-color:rgb(231,207,0);stop-opacity:1"/><stop offset="100%" style="stop-color:rgb(255,154,22);stop-opacity:1"/></radialGradient>
        <radialGradient id="_Radial31" cx="0" cy="0" r="1" gradientUnits="userSpaceOnUse" gradientTransform="matrix(46.2387,0,0,70.9225,728.692,1497.05)"><stop offset="0%" style="stop-color:rgb(240,122,255);stop-opacity:1"/><stop offset="100%" style="stop-color:rgb(208,0,211);stop-opacity:1"/></radialGradient>
        <radialGradient id="_Radial32" cx="0" cy="0" r="1" gradientUnits="userSpaceOnUse" gradientTransform="matrix(46.2387,0,0,70.9225,728.692,1497.05)"><stop offset="0%" style="stop-color:rgb(240,122,255);stop-opacity:1"/><stop offset="100%" style="stop-color:rgb(208,0,211);stop-opacity:1"/></radialGradient>
        <radialGradient id="_Radial33" cx="0" cy="0" r="1" gradientUnits="userSpaceOnUse" gradientTransform="matrix(46.2387,0,0,70.9225,728.692,1497.05)"><stop offset="0%" style="stop-color:rgb(255,138,79);stop-opacity:1"/><stop offset="100%" style="stop-color:rgb(255,74,19);stop-opacity:1"/></radialGradient>
        <radialGradient id="_Radial34" cx="0" cy="0" r="1" gradientUnits="userSpaceOnUse" gradientTransform="matrix(46.2387,0,0,70.9225,728.692,1497.05)"><stop offset="0%" style="stop-color:rgb(255,138,79);stop-opacity:1"/><stop offset="100%" style="stop-color:rgb(255,74,19);stop-opacity:1"/></radialGradient>
    </defs>
</svg>
